<svg width="15" height="15" viewBox="0 0 15 15" fill="none" xmlns="http://www.w3.org/2000/svg">
<path d="M8.57081 1.705L9.74415 4.05167C9.90415 4.37833 10.3308 4.69167 10.6908 4.75167L12.8175 5.105C14.1775 5.33167 14.4975 6.31833 13.5175 7.29167L11.8641 8.945C11.5841 9.225 11.4308 9.765 11.5175 10.1517L11.9908 12.1983C12.3641 13.8183 11.5041 14.445 10.0708 13.5983L8.07748 12.4183C7.71748 12.205 7.12415 12.205 6.75748 12.4183L4.76415 13.5983C3.33748 14.445 2.47081 13.8117 2.84415 12.1983L3.31748 10.1517C3.40415 9.765 3.25081 9.225 2.97081 8.945L1.31748 7.29167C0.344148 6.31833 0.657481 5.33167 2.01748 5.105L4.14415 4.75167C4.49748 4.69167 4.92415 4.37833 5.08415 4.05167L6.25748 1.705C6.89748 0.431667 7.93748 0.431667 8.57081 1.705Z" stroke="#FFAD49" stroke-width="1.5" stroke-linecap="round" stroke-linejoin="round"/>
</svg>
